REM DIRINDEX 1\6,1\2\7,1\2\8,1\2\9,1\3\10,1\3\11,1\4\12,1\4\13,1\4\14,1\5\15,1\5\16,1\5\17
REM DIRNAME folder01,folder02,folder03,folder04,folder05,folder06,folder07,folder08,folder09,folder10,folder11,folder12,folder13,folder14,folder15,folder16,folder17
TITLE ""
FILE "3Q_j_1133-1148.mp3" MP3
  TRACK 01 AUDIO
    TITLE "12:cjc041_0699"
    INDEX 01 00:00:00
  TRACK 02 AUDIO
    TITLE "0:"
    INDEX 01 00:01:62
  TRACK 03 AUDIO
    TITLE "13:cjc041_0700"
    INDEX 01 00:02:38
  TRACK 04 AUDIO
    TITLE "0:"
    INDEX 01 00:04:50
  TRACK 05 AUDIO
    TITLE "14:cjc041_0701"
    INDEX 01 00:05:28
  TRACK 06 AUDIO
    TITLE "0:"
    INDEX 01 00:09:28
  TRACK 07 AUDIO
    TITLE "12:cjc041_0702"
    INDEX 01 00:10:12
  TRACK 08 AUDIO
    TITLE "0:"
    INDEX 01 00:11:48
  TRACK 09 AUDIO
    TITLE "13:cjc041_0703"
    INDEX 01 00:12:24
  TRACK 10 AUDIO
    TITLE "0:"
    INDEX 01 00:13:20
  TRACK 11 AUDIO
    TITLE "14:cjc041_0704"
    INDEX 01 00:13:69
  TRACK 12 AUDIO
    TITLE "0:"
    INDEX 01 00:17:14
  TRACK 13 AUDIO
    TITLE "12:cjc041_0705"
    INDEX 01 00:17:70
  TRACK 14 AUDIO
    TITLE "0:"
    INDEX 01 00:20:10
  TRACK 15 AUDIO
    TITLE "13:cjc041_0706"
    INDEX 01 00:20:63
  TRACK 16 AUDIO
    TITLE "0:"
    INDEX 01 00:22:62
  TRACK 17 AUDIO
    TITLE "14:cjc041_0707"
    INDEX 01 00:23:42
  TRACK 18 AUDIO
    TITLE "0:"
    INDEX 01 00:25:41
  TRACK 19 AUDIO
    TITLE "12:cjc041_0708"
    INDEX 01 00:26:24
  TRACK 20 AUDIO
    TITLE "0:"
    INDEX 01 00:28:47
  TRACK 21 AUDIO
    TITLE "13:cjc041_0709"
    INDEX 01 00:29:23
  TRACK 22 AUDIO
    TITLE "0:"
    INDEX 01 00:31:59
  TRACK 23 AUDIO
    TITLE "14:cjc041_0710"
    INDEX 01 00:32:43
  TRACK 24 AUDIO
    TITLE "0:"
    INDEX 01 00:35:29
  TRACK 25 AUDIO
    TITLE "12:cjc041_0711"
    INDEX 01 00:36:05
  TRACK 26 AUDIO
    TITLE "0:"
    INDEX 01 00:38:08
  TRACK 27 AUDIO
    TITLE "13:cjc041_0712"
    INDEX 01 00:38:61
  TRACK 28 AUDIO
    TITLE "0:"
    INDEX 01 00:42:08
  TRACK 29 AUDIO
    TITLE "14:cjc041_0713"
    INDEX 01 00:42:63
  TRACK 30 AUDIO
    TITLE "0:"
    INDEX 01 00:47:32
  TRACK 31 AUDIO
    TITLE "12:cjc041_0714"
    INDEX 01 00:48:12
  TRACK 32 AUDIO
    TITLE "0:"
    INDEX 01 00:50:13
  TRACK 33 AUDIO
    TITLE "13:cjc041_0715"
    INDEX 01 00:50:70
  TRACK 34 AUDIO
    TITLE "0:"
    INDEX 01 00:52:47
  TRACK 35 AUDIO
    TITLE "14:cjc041_0716"
    INDEX 01 00:53:21
  TRACK 36 AUDIO
    TITLE "0:"
    INDEX 01 00:57:17
  TRACK 37 AUDIO
    TITLE "12:cjc041_0717"
    INDEX 01 00:57:70
  TRACK 38 AUDIO
    TITLE "0:"
    INDEX 01 00:59:73
  TRACK 39 AUDIO
    TITLE "13:cjc041_0718"
    INDEX 01 01:00:51
  TRACK 40 AUDIO
    TITLE "0:"
    INDEX 01 01:02:50
  TRACK 41 AUDIO
    TITLE "14:cjc041_0719"
    INDEX 01 01:03:24
  TRACK 42 AUDIO
    TITLE "0:"
    INDEX 01 01:06:61
  TRACK 43 AUDIO
    TITLE "12:cjc041_0720"
    INDEX 01 01:07:37
  TRACK 44 AUDIO
    TITLE "0:"
    INDEX 01 01:09:63
  TRACK 45 AUDIO
    TITLE "13:cjc041_0721"
    INDEX 01 01:10:43
  TRACK 46 AUDIO
    TITLE "0:"
    INDEX 01 01:13:34
  TRACK 47 AUDIO
    TITLE "14:cjc041_0722"
    INDEX 01 01:14:14
  TRACK 48 AUDIO
    TITLE "0:"
    INDEX 01 01:17:55
  TRACK 49 AUDIO
    TITLE "12:cjc041_0723"
    INDEX 01 01:18:41
  TRACK 50 AUDIO
    TITLE "0:"
    INDEX 01 01:21:04
  TRACK 51 AUDIO
    TITLE "13:cjc041_0724"
    INDEX 01 01:21:61
  TRACK 52 AUDIO
    TITLE "0:"
    INDEX 01 01:23:69
  TRACK 53 AUDIO
    TITLE "14:cjc041_0725"
    INDEX 01 01:24:51
  TRACK 54 AUDIO
    TITLE "0:"
    INDEX 01 01:28:72
  TRACK 55 AUDIO
    TITLE "12:cjc041_0726"
    INDEX 01 01:29:54
  TRACK 56 AUDIO
    TITLE "0:"
    INDEX 01 01:31:53
  TRACK 57 AUDIO
    TITLE "13:cjc041_0727"
    INDEX 01 01:32:31
  TRACK 58 AUDIO
    TITLE "0:"
    INDEX 01 01:34:54
  TRACK 59 AUDIO
    TITLE "14:cjc041_0728"
    INDEX 01 01:35:33
  TRACK 60 AUDIO
    TITLE "0:"
    INDEX 01 01:39:74
  TRACK 61 AUDIO
    TITLE "12:cjc041_0729"
    INDEX 01 01:40:56
  TRACK 62 AUDIO
    TITLE "0:"
    INDEX 01 01:43:02
  TRACK 63 AUDIO
    TITLE "13:cjc041_0730"
    INDEX 01 01:43:60
  TRACK 64 AUDIO
    TITLE "0:"
    INDEX 01 01:46:08
  TRACK 65 AUDIO
    TITLE "14:cjc041_0731"
    INDEX 01 01:46:65
  TRACK 66 AUDIO
    TITLE "0:"
    INDEX 01 01:51:30
  TRACK 67 AUDIO
    TITLE "12:cjc041_0732"
    INDEX 01 01:52:08
  TRACK 68 AUDIO
    TITLE "0:"
    INDEX 01 01:53:59
  TRACK 69 AUDIO
    TITLE "13:cjc041_0733"
    INDEX 01 01:54:37
  TRACK 70 AUDIO
    TITLE "0:"
    INDEX 01 01:56:20
  TRACK 71 AUDIO
    TITLE "14:cjc041_0734"
    INDEX 01 01:57:00
  TRACK 72 AUDIO
    TITLE "0:"
    INDEX 01 02:01:29
  TRACK 73 AUDIO
    TITLE "12:cjc041_0735"
    INDEX 01 02:02:11
  TRACK 74 AUDIO
    TITLE "0:"
    INDEX 01 02:03:65
  TRACK 75 AUDIO
    TITLE "13:cjc041_0736"
    INDEX 01 02:04:41
  TRACK 76 AUDIO
    TITLE "0:"
    INDEX 01 02:06:32
  TRACK 77 AUDIO
    TITLE "14:cjc041_0737"
    INDEX 01 02:07:08
  TRACK 78 AUDIO
    TITLE "0:"
    INDEX 01 02:10:42
  TRACK 79 AUDIO
    TITLE "12:cjc041_0738"
    INDEX 01 02:11:21
  TRACK 80 AUDIO
    TITLE "0:"
    INDEX 01 02:13:14
  TRACK 81 AUDIO
    TITLE "13:cjc041_0739"
    INDEX 01 02:13:65
  TRACK 82 AUDIO
    TITLE "0:"
    INDEX 01 02:15:19
  TRACK 83 AUDIO
    TITLE "14:cjc041_0740"
    INDEX 01 02:15:74
  TRACK 84 AUDIO
    TITLE "0:"
    INDEX 01 02:19:50
  TRACK 85 AUDIO
    TITLE "12:cjc041_0741"
    INDEX 01 02:20:24
  TRACK 86 AUDIO
    TITLE "0:"
    INDEX 01 02:21:59
  TRACK 87 AUDIO
    TITLE "13:cjc041_0742"
    INDEX 01 02:22:39
  TRACK 88 AUDIO
    TITLE "0:"
    INDEX 01 02:23:50
  TRACK 89 AUDIO
    TITLE "14:cjc041_0743"
    INDEX 01 02:24:28
  TRACK 90 AUDIO
    TITLE "0:"
    INDEX 01 02:28:02
  TRACK 91 AUDIO
    TITLE "12:cjc041_0744"
    INDEX 01 02:28:55
  TRACK 92 AUDIO
    TITLE "0:"
    INDEX 01 02:30:44
  TRACK 93 AUDIO
    TITLE "13:cjc041_0745"
    INDEX 01 02:31:32
  TRACK 94 AUDIO
    TITLE "0:"
    INDEX 01 02:33:54
  TRACK 95 AUDIO
    TITLE "14:cjc041_0746"
    INDEX 01 02:34:34
  TRACK 96 AUDIO
    TITLE "0:"
    INDEX 01 02:38:44
